<svg id="Layer_1" data-name="Layer 1" xmlns="http://www.w3.org/2000/svg" viewBox="0 0 500 500"><defs><style>.cls-1{fill:none;stroke:#fff;stroke-width:13px;}.cls-1,.cls-3{stroke-miterlimit:10;}.cls-2{fill:#fff;}.cls-3,.cls-4{stroke:#000;stroke-width:4.89px;}.cls-4{stroke-linejoin:round;}</style></defs><title>Certbot-Icons</title><circle cx="250.5" cy="251.5" r="250"/><circle class="cls-1" cx="250" cy="251.5" r="148.16"/><path class="cls-2" d="M325.36,214.56a71.36,71.36,0,0,0-67.19-71.24c-43.55-2.51-79.44,34.86-75.2,78.27a71.3,71.3,0,0,0,26.41,48.67.05.05,0,0,1,0,0c.37,7.1,1.32,26.5,1.32,35.85,0,16.67,19.22,21.93,20.19,22.19,0,0,0,0,0,.05l.45,28.17s0,8.74,5.19,8.74a7.64,7.64,0,0,1,7.08,5.19c.94,2.82,3.75,5.17,10.28,5.19h.1c6.52,0,9.33-2.37,10.27-5.19a7.66,7.66,0,0,1,7.09-5.19c5.19,0,5.19-8.74,5.19-8.74l.45-28.17s0-.05,0-.05c1-.26,20.18-5.52,20.18-22.19,0-9.35,1-28.75,1.33-35.85,0,0,0,0,0,0A71.25,71.25,0,0,0,325.36,214.56Z"/><path class="cls-3" d="M253.72,379.93h0c-4.39-.06-11.77-1.22-14.06-8.1a3.39,3.39,0,0,0-3.11-2.28c-2,0-6.59-.79-8.56-7.41a21.34,21.34,0,0,1-.82-5.54l-.4-25.13c-8.67-3.2-20.27-11.18-20.27-25.32,0-8.47-.8-25.27-1.23-33.79a75.62,75.62,0,1,1,97.49,0c-.43,8.52-1.22,25.31-1.22,33.79,0,14.14-11.6,22.12-20.27,25.32l-.4,25.13a21.07,21.07,0,0,1-.83,5.54c-2,6.62-6.59,7.39-8.55,7.41a3.39,3.39,0,0,0-3.12,2.3c-2.33,7-10,8.06-14.28,8.08Zm.28-8.51h.21c2.06,0,5.44-.36,6.08-2.28a12,12,0,0,1,11-8.1,9.35,9.35,0,0,0,1.06-4.49v-.07l.45-28.17a4.3,4.3,0,0,1,3.2-4.09c.7-.18,17-4.64,17-18.08,0-9.35.93-28.34,1.33-36.07l.1-1.89L296,267A67.13,67.13,0,1,0,212,267l1.48,1.19.12,1.94c.4,7.74,1.33,26.74,1.33,36.07,0,13.44,16.33,17.9,17,18.08a4.31,4.31,0,0,1,3.21,4.12l.44,28.21a9.58,9.58,0,0,0,1.06,4.49,12,12,0,0,1,11,8.08c.64,1.93,4,2.28,6.09,2.3Zm-27.3-43v0Zm54.59,0v0Z"/><path class="cls-4" d="M288.68,175a43.22,43.22,0,0,1,15.4,17.14,51,51,0,0,1,0,46,43,43,0,0,1-15.41,17.14,109.43,109.43,0,0,0,5.33-9.77,74.71,74.71,0,0,0,3.9-9.92,69,69,0,0,0,3.17-20.46,68.27,68.27,0,0,0-3.16-20.45,73.49,73.49,0,0,0-3.9-9.93A109.42,109.42,0,0,0,288.68,175Z"/><rect class="cls-3" x="233.06" y="324.09" width="41.89" height="8.5"/></svg>