<svg id="Layer_1" data-name="Layer 1" xmlns="http://www.w3.org/2000/svg" viewBox="0 0 500 500"><defs><style>.cls-1{fill:#fff;}</style></defs><title>Certbot-Icons</title><circle cx="250.5" cy="251.5" r="250"/><path class="cls-1" d="M262.91,126.76l5.57-5.57,17.26-17.26H215.26l17.5,17.5,4.46,4.46C207.4,149.08,133,214,133,284.19c1.39,62.92,52.91,114,115.84,114.87A117.54,117.54,0,0,0,368,281.53C368,214.3,294,150.58,262.91,126.76Z"/><path id="Path_3793" data-name="Path 3793" d="M281.54,217.88a34.84,34.84,0,0,0-34.46,34.91,34.84,34.84,0,0,0-34.46-34.91,34.45,34.45,0,0,0-34.46,34.45c0,50,68.92,97.18,68.92,97.18S316,302.36,316,252.33a34.45,34.45,0,0,0-34.46-34.45Z"/><rect x="223.12" y="126.57" width="49.85" height="9.31"/><rect x="215.38" y="120.03" width="65.32" height="22.4"/></svg>