<svg id="Layer_1" data-name="Layer 1" xmlns="http://www.w3.org/2000/svg" viewBox="0 0 500 500"><defs><style>.cls-1{fill:#fff;}</style></defs><title>Certbot-Icons</title><circle cx="250.5" cy="251.5" r="250"/><path class="cls-1" d="M404,226.56l-27.26-2.78a116.77,116.77,0,0,0-16.42-39.35l17.35-21.06a6.75,6.75,0,0,0,0-9.29L352,128.36a6.75,6.75,0,0,0-9.29,0l-21.06,17.35a130.76,130.76,0,0,0-39.35-16.42L279.48,102a6.86,6.86,0,0,0-6.81-6.81H236.42a6.87,6.87,0,0,0-6.81,6.81l-2.79,27.26a116.64,116.64,0,0,0-39.34,16.42l-21.07-17.35a6.75,6.75,0,0,0-9.29,0l-25.71,25.72a6.73,6.73,0,0,0,0,9.29l17.35,21.06a130.36,130.36,0,0,0-16.42,39.35l-26.95,2.78a6.88,6.88,0,0,0-6.82,6.82v36.24a6.88,6.88,0,0,0,6.82,6.82l27.26,2.79a116.23,116.23,0,0,0,16.42,39.34l-17.35,21.07a6.73,6.73,0,0,0,0,9.29l25.71,25.71a6.73,6.73,0,0,0,9.29,0l21.07-17.35a130.45,130.45,0,0,0,39.34,16.42L229.92,401a6.88,6.88,0,0,0,6.81,6.82H273a6.87,6.87,0,0,0,6.81-6.82l2.79-27.26a116.43,116.43,0,0,0,39.34-16.42L343,374.64a6.73,6.73,0,0,0,9.29,0L378,348.93a6.75,6.75,0,0,0,0-9.29l-17.35-21.07a130.7,130.7,0,0,0,16.42-39.34l27.26-2.79a6.88,6.88,0,0,0,6.81-6.82V233.07A7.1,7.1,0,0,0,404,226.56ZM258.11,350.17A99.13,99.13,0,0,1,155.88,247.94c1.55-50.49,45.23-93.86,95.72-95.72A99.13,99.13,0,0,1,353.83,254.45C352,304.94,308.29,348.62,258.11,350.17Z"/><path class="cls-1" d="M254.7,305.25a53.9,53.9,0,1,1,53.9-53.9A53.94,53.94,0,0,1,254.7,305.25Zm0-81.47a27.57,27.57,0,1,0,27.57,27.57A27.63,27.63,0,0,0,254.7,223.78Z"/></svg>