<svg id="Layer_1" data-name="Layer 1" xmlns="http://www.w3.org/2000/svg" viewBox="0 0 500 500"><defs><style>.cls-1{fill:#fff;}</style></defs><title>Icons</title><circle cx="249.46" cy="251.5" r="250"/><path class="cls-1" d="M416.1,302.94c0-33.09-36.53-59.91-81.6-59.91s-81.59,26.82-81.59,59.91,36.53,59.92,81.59,59.92a103.6,103.6,0,0,0,44-9.47l0,0,25.43,9.43V334.43C411.64,325.28,416.1,314.49,416.1,302.94Z"/><path class="cls-1" d="M82.83,200.06c0-33.09,36.53-59.91,81.59-59.91S246,167,246,200.06,209.49,260,164.42,260a103.74,103.74,0,0,1-44-9.46l0,0L95,260V231.55C87.29,222.4,82.83,211.62,82.83,200.06Z"/></svg>