<svg id="Layer_1" data-name="Layer 1" xmlns="http://www.w3.org/2000/svg" viewBox="0 0 500 500"><defs><style>.cls-1{fill:#fff;}.cls-2{stroke:#000;stroke-linejoin:round;stroke-width:4.89px;}</style></defs><title>Certbot-Icons</title><circle cx="249.46" cy="251.5" r="250"/><path class="cls-1" d="M416.1,302.94c0-33.09-36.53-59.91-81.6-59.91s-81.59,26.82-81.59,59.91,36.53,59.92,81.59,59.92a103.6,103.6,0,0,0,44-9.47l0,0,25.43,9.43V334.43C411.64,325.28,416.1,314.49,416.1,302.94Z"/><path class="cls-1" d="M82.83,200.06c0-33.09,36.53-59.91,81.59-59.91S246,167,246,200.06,209.49,260,164.42,260a103.74,103.74,0,0,1-44-9.46l0,0L95,260V231.55C87.29,222.4,82.83,211.62,82.83,200.06Z"/><path class="cls-2" d="M209.58,162.26A43,43,0,0,1,225,179.4a51,51,0,0,1,0,46,43.1,43.1,0,0,1-15.41,17.14c2-3.29,3.79-6.49,5.34-9.77a74.83,74.83,0,0,0,3.9-9.93,67.89,67.89,0,0,0,0-40.91,74.07,74.07,0,0,0-3.91-9.93A109.27,109.27,0,0,0,209.58,162.26Z"/><path class="cls-2" d="M289.34,265.13A43.13,43.13,0,0,0,274,282.27a50.92,50.92,0,0,0,0,46,43,43,0,0,0,15.4,17.13c-2-3.28-3.79-6.48-5.33-9.76a74.83,74.83,0,0,1-3.9-9.93,67.89,67.89,0,0,1,0-40.91,75.37,75.37,0,0,1,3.9-9.93C285.55,271.61,287.37,268.42,289.34,265.13Z"/></svg>