<svg id="Layer_1" data-name="Layer 1" xmlns="http://www.w3.org/2000/svg" viewBox="0 0 500 500"><defs><style>.cls-1{fill:#fff;}</style></defs><title>Icons</title><path d="M250.72,50h-.11c0,.36.06.72.06,1.09C250.67,50.69,250.69,50.33,250.72,50Z"/><path d="M201,50l.32.31c-.05-.1-.08-.21-.12-.31Z"/><path d="M300.27,50h-.12l-.06.18Z"/><path d="M268.11,82.12,276,74.29l22.11-22.12a4.49,4.49,0,0,0,2-2l.06-.18a2.54,2.54,0,0,0,.18-.91,12.42,12.42,0,1,0-24.83,0,2.77,2.77,0,0,0,.17.91h-.23a12.41,12.41,0,0,0-24.72,0c0,.36-.05.72-.05,1.09,0-.37,0-.73-.06-1.09a12.41,12.41,0,0,0-24.72,0h-.23a2.54,2.54,0,0,0,.18-.91,12.42,12.42,0,1,0-24.83,0,2.77,2.77,0,0,0,.17.91c0,.1.07.21.12.31A4.55,4.55,0,0,0,203,52l22.59,22.58,6.29,6.3c-42,32.66-146.86,124.09-146.86,223,2,88.64,74.54,160.59,163.19,161.83A165.59,165.59,0,0,0,416.19,300.16C416.19,205.44,312,115.69,268.11,82.12Z"/><path id="Path_3793" data-name="Path 3793" class="cls-1" d="M299.16,210.48a49.1,49.1,0,0,0-48.54,49.19,49.1,49.1,0,0,0-48.54-49.19A48.55,48.55,0,0,0,153.54,259c0,70.47,97.08,136.9,97.08,136.9S347.71,329.5,347.71,259a48.55,48.55,0,0,0-48.54-48.55Z"/><path class="cls-1" d="M276,87.41h-50.4a6.5,6.5,0,0,1,0-13H276a6.5,6.5,0,0,1,0,13Z"/><circle cx="250.5" cy="251.5" r="250"/><path d="M247.69,495.25h-.08c0,.27,0,.54,0,.82C247.65,495.79,247.67,495.52,247.69,495.25Z"/><path d="M210.2,495.25l.25.24a2.44,2.44,0,0,1-.1-.24Z"/><path d="M285,495.25H285s0,.09-.05.13Z"/><path class="cls-1" d="M260.8,122.58l5.9-5.9L283.37,100a3.41,3.41,0,0,0,1.53-1.53s0-.09.05-.13a2.28,2.28,0,0,0,.13-.69,9.36,9.36,0,0,0-18.72,0,2.28,2.28,0,0,0,.13.69h-.17a9.35,9.35,0,0,0-18.63,0c0,.27,0,.54,0,.82,0-.28,0-.55,0-.82a9.35,9.35,0,0,0-18.63,0h-.17a2.28,2.28,0,0,0,.13-.69,9.36,9.36,0,0,0-18.72,0,2.28,2.28,0,0,0,.13.69,2.44,2.44,0,0,0,.1.24,3.29,3.29,0,0,0,1.31,1.31l17,17,4.74,4.75c-31.66,24.61-110.68,93.52-110.68,168.05,1.48,66.81,56.18,121,123,122A124.78,124.78,0,0,0,372.39,286.9C372.39,215.52,293.84,147.88,260.8,122.58Z"/><path id="Path_3793-2" data-name="Path 3793" d="M284.2,219.32a37,37,0,0,0-36.58,37.07A37,37,0,0,0,211,219.32a36.59,36.59,0,0,0-36.58,36.59c0,53.11,73.17,103.17,73.17,103.17S320.79,309,320.79,255.91a36.59,36.59,0,0,0-36.59-36.59Z"/><path d="M266.7,126.56h-38a4.9,4.9,0,1,1,0-9.79h38a4.9,4.9,0,1,1,0,9.79Z"/></svg>