<svg id="Layer_1" data-name="Layer 1" xmlns="http://www.w3.org/2000/svg" viewBox="0 0 500 500"><defs><style>.cls-1{fill:#fff;}.cls-2,.cls-3{stroke:#000;stroke-width:6.35px;}.cls-2{stroke-miterlimit:10;}.cls-3{stroke-linejoin:round;}</style></defs><title>Certbot-Icons</title><circle cx="250.5" cy="251.5" r="250"/><path class="cls-1" d="M342.67,201.16a92.68,92.68,0,0,0-87.25-92.52c-56.56-3.26-103.17,45.27-97.66,101.65a92.58,92.58,0,0,0,34.29,63.2.05.05,0,0,1,0,.05c.48,9.22,1.72,34.42,1.72,46.56,0,21.64,24.95,28.48,26.22,28.81,0,0,0,0,0,.07l.57,36.58s0,11.35,6.75,11.35a9.92,9.92,0,0,1,9.2,6.74c1.22,3.66,4.87,6.71,13.34,6.74h.13c8.48,0,12.12-3.08,13.34-6.74a9.93,9.93,0,0,1,9.2-6.74c6.75,0,6.75-11.35,6.75-11.35l.58-36.58a.07.07,0,0,1,.05-.07c1.26-.33,26.21-7.17,26.21-28.81,0-12.14,1.25-37.34,1.72-46.56a.05.05,0,0,1,0-.05A92.51,92.51,0,0,0,342.67,201.16Z"/><path class="cls-2" d="M249.64,415.91h0c-5.7-.08-15.28-1.59-18.25-10.52a4.43,4.43,0,0,0-4.05-3c-2.55,0-8.56-1-11.11-9.62a27.89,27.89,0,0,1-1.07-7.19L214.61,353c-11.26-4.15-26.33-14.51-26.33-32.87,0-11-1-32.83-1.59-43.88a98.19,98.19,0,1,1,161.5-75.06,97.77,97.77,0,0,1-34.89,75.06c-.56,11-1.59,32.86-1.59,43.88,0,18.36-15.07,28.72-26.33,32.87l-.51,32.65a28.1,28.1,0,0,1-1.08,7.19c-2.55,8.59-8.56,9.6-11.11,9.62a4.42,4.42,0,0,0-4.05,3c-3,9.07-12.92,10.47-18.54,10.49Zm.36-11.05.27,0c2.68,0,7.07-.48,7.9-3a15.51,15.51,0,0,1,14.29-10.51c.68-.81,1.37-3.67,1.37-5.83v-.09l.58-36.58a5.61,5.61,0,0,1,4.16-5.32c.91-.23,22.11-6,22.11-23.47,0-12.14,1.2-36.8,1.72-46.85l.13-2.45,1.94-1.6a87.18,87.18,0,1,0-109,0l1.93,1.55.15,2.52c.52,10.05,1.73,34.72,1.73,46.85,0,17.45,21.2,23.24,22.1,23.47a5.61,5.61,0,0,1,4.16,5.35l.58,36.64c0,2.21.69,5,1.38,5.83a15.49,15.49,0,0,1,14.27,10.49c.84,2.51,5.22,3,7.91,3Zm-35.45-55.79v0Zm70.89,0v0Z"/><path class="cls-3" d="M295,149.72c8.47,5.2,15.3,13.15,20,22.25a66.22,66.22,0,0,1,0,59.76c-4.68,9.11-11.52,17.06-20,22.25,2.55-4.27,4.92-8.42,6.92-12.68A97.83,97.83,0,0,0,307,228.41a88.21,88.21,0,0,0,0-53.13A96.47,96.47,0,0,0,302,162.39,141.56,141.56,0,0,0,295,149.72Z"/><rect class="cls-2" x="222.8" y="343.39" width="54.4" height="11.03"/></svg>