<svg id="Layer_1" data-name="Layer 1" xmlns="http://www.w3.org/2000/svg" viewBox="0 0 500 500"><defs><style>.cls-1{fill:#fff;}</style></defs><title>Certbot-Icons</title><circle cx="251.83" cy="251.5" r="250"/><path class="cls-1" d="M160.15,121.35h171a3.13,3.13,0,0,1,3.19,2.83h0v205.4h0a3.18,3.18,0,0,1-3.16,3.18H166.53a29.91,29.91,0,0,0-5.67.36,15.58,15.58,0,0,0-13.45,9.56,15.94,15.94,0,0,0,2.12,16.65,17.87,17.87,0,0,0,15.21,6.38H354.19a3.19,3.19,0,0,0,3.19-3.16V157.48a3.16,3.16,0,0,1,3.15-3.19h10a3.16,3.16,0,0,1,3.18,3.16v221a3.17,3.17,0,0,1-3.15,3.19H157a2.14,2.14,0,0,1-1.45-.36h-.35A32.37,32.37,0,0,1,130,348.69V154.29a32.32,32.32,0,0,1,22.32-30.81c2.47-.72,4.6-1.06,7.08-1.77C159.44,121.35,159.8,121.35,160.15,121.35Z"/><path d="M181.05,160.58h0a7.84,7.84,0,0,1,7.79-7.79h95.59a7.84,7.84,0,0,1,7.79,7.79h0a7.84,7.84,0,0,1-7.79,7.79H188.84a7.42,7.42,0,0,1-7.79-7.05A4.57,4.57,0,0,1,181.05,160.58Z"/><path d="M260,193.16h0a7.86,7.86,0,0,1-7.81,7.78H188.83a7.86,7.86,0,0,1-7.79-7.79h0a7.86,7.86,0,0,1,7.79-7.8h63A8,8,0,0,1,260,193.1Z"/><path d="M181.05,225.73h0a7.85,7.85,0,0,1,7.79-7.79h30.45a7.85,7.85,0,0,1,7.79,7.79h0a7.86,7.86,0,0,1-7.79,7.8H188.84A7.86,7.86,0,0,1,181.05,225.73Z"/></svg>