<svg id="Layer_1" data-name="Layer 1" xmlns="http://www.w3.org/2000/svg" viewBox="0 0 500 500"><defs><style>.cls-1{fill:#fff;}</style></defs><title>Certbot-Icons</title><circle cx="250" cy="251.5" r="250"/><path class="cls-1" d="M138.72,289.8c-8.91,13.21-21.47,20.81-34.67,20.81-13.55,0-25.76-7.27-35-20.48a85.89,85.89,0,0,1,0-90.48c8.91-13.21,21.47-20.47,34.67-20.47s25.75,7.26,35,20.47a70.64,70.64,0,0,1,11.56,30,4.56,4.56,0,0,0,4.29,3.64L439.22,233a4.93,4.93,0,0,1,4.62,4.29v13.87a4.93,4.93,0,0,1-4.3,4.62H423.7a4.46,4.46,0,0,0-4.3,4.6V319.2a4.93,4.93,0,0,1-4.29,4.63H349.06a4.93,4.93,0,0,1-4.62-4.3V260.75a4.46,4.46,0,0,0-4.6-4.3h-4a4.45,4.45,0,0,0-4.29,4.6V306a4.94,4.94,0,0,1-4.29,4.63H317a4.93,4.93,0,0,1-4.62-4.3V261.4a4.44,4.44,0,0,0-4.6-4.29H154.9a4.29,4.29,0,0,0-4.29,3.63A80.59,80.59,0,0,1,138.72,289.8Zm-35-92.13c-15.85,0-29.4,21.8-29.4,47.22S87.86,292.12,104,292.12s29.39-21.8,29.39-47.23S119.57,197.67,103.71,197.67Z"/></svg>