<svg id="Layer_1" data-name="Layer 1" xmlns="http://www.w3.org/2000/svg" xmlns:xlink="http://www.w3.org/1999/xlink" viewBox="0 0 500 500"><defs><style>.cls-1{fill:none;}.cls-2{clip-path:url(#clip-path);}.cls-3{fill:#d9d9d9;}.cls-4{fill:#e6e6e6;}.cls-5{fill:#b7b7b7;}.cls-6{fill:#3a3b3a;}.cls-7{fill:#284445;}.cls-8,.cls-9{isolation:isolate;}.cls-9{font-size:62.28px;fill:#fff;font-family:Barlow-Regular, Barlow;}</style><clipPath id="clip-path"><rect class="cls-1" x="-6.91" y="16.6" width="504.97" height="459.65"/></clipPath></defs><title>Certbot-Icons</title><g class="cls-2"><g id="Computer"><path id="Path_442" data-name="Path 442" class="cls-3" d="M498.06,298l-108,178.26-10.14-6.45L494.08,286.54Z"/><path id="Path_948" data-name="Path 948" class="cls-4" d="M490.43,286.7l-387.38-.14a3.76,3.76,0,0,0-3,1.46L-6.53,466.92c-.48.78.09,1.46,1.27,1.46l387.37.13a3.73,3.73,0,0,0,3-1.46L491.7,288.16C492.18,287.34,491.6,286.7,490.43,286.7Z"/><g id="Group_2109" data-name="Group 2109"><path id="Path_442-2" data-name="Path 442-2" class="cls-5" d="M495.85,298l-108,178.26-10.14-6.45L491.87,286.54Z"/><rect id="Rectangle_483" data-name="Rectangle 483" class="cls-5" x="-6.91" y="466.9" width="393.66" height="9.35"/></g><rect id="Rectangle_512" data-name="Rectangle 512" x="107.24" y="31.84" width="370.38" height="233.26"/><path id="Path_823" data-name="Path 823" class="cls-4" d="M492.33,16.6H103.56a2.33,2.33,0,0,0-2.34,2.33h0V283a2.33,2.33,0,0,0,2.34,2.33H492.33a2.33,2.33,0,0,0,2.33-2.33h0V18.93A2.33,2.33,0,0,0,492.33,16.6ZM475.81,262.77a2.33,2.33,0,0,1-2.33,2.34h-351a2.34,2.34,0,0,1-2.34-2.34h0V34.17a2.34,2.34,0,0,1,2.34-2.34h351a2.33,2.33,0,0,1,2.33,2.34h0Z"/><path id="Path_849" data-name="Path 849" class="cls-6" d="M460.35,309.31l-353.27-.11-50,84.15,353.27.13Z"/><path id="Path_867" data-name="Path 867" class="cls-7" d="M258.47,459.54l-130.93-.05,32.3-54.39,130.93.06Zm-129.74-.61L258,459l31.64-53.23-129.25,0Z"/><g id="user_" data-name="user " class="cls-8"><text class="cls-9" transform="translate(135.03 116.46)">user$</text></g></g></g></svg>