<?xml version="1.0" encoding="utf-8"?>
<!-- Generator: Adobe Illustrator 16.0.0, SVG Export Plug-In . SVG Version: 6.00 Build 0)  -->
<!DOCTYPE svg PUBLIC "-//W3C//DTD SVG 1.1//EN" "http://www.w3.org/Graphics/SVG/1.1/DTD/svg11.dtd">
<svg version="1.1" id="Layer_1" xmlns="http://www.w3.org/2000/svg" xmlns:xlink="http://www.w3.org/1999/xlink" x="0px" y="0px"
	 width="612px" height="612px" viewBox="0 90 612 612" enable-background="new 0 90 612 612" xml:space="preserve">
<g id="XMLID_20_">
	<circle id="XMLID_17_" cx="306" cy="396" r="306"/>
</g>
<g id="XMLID_90_">
	<g id="XMLID_131_">
		<path id="XMLID_135_" fill="#FFFFFF" d="M193.8,241.725c71.4,0,133.875,0,205.275,0c2.125,0,3.825,1.7,3.825,3.4l0,0
			c0,82.025,0,164.475,0,246.5l0,0c0,2.125-1.7,3.825-3.825,3.825c-0.425,0-0.425,0-0.851,0c-68.425,0-128.35,0-196.774,0
			c-2.125,0-4.675,0-6.8,0.425c-7.65,0.85-13.175,4.675-16.15,11.475c-2.975,6.801-2.125,13.601,2.55,19.976
			c4.675,5.95,11.05,7.649,18.275,7.649c75.65,0,151.3,0,226.95,0h0.425c2.125,0,3.825-1.699,3.825-3.824V285.075
			c0-2.125,1.699-3.825,3.824-3.825h11.9c2.125,0,3.825,1.7,3.825,3.825c0,0.425,0,0.425,0,0.85c0,87.975,0,175.95,0,263.925v0.426
			c0,2.125-1.7,3.824-3.825,3.824H189.975c-0.425,0-1.275,0-1.7-0.425h-0.425c-18.7-5.1-30.175-19.55-30.175-39.1
			c0-77.775,0-155.55,0-233.325c0-17,10.625-31.45,26.775-36.975c2.975-0.85,5.525-1.275,8.5-2.125
			C192.95,241.725,193.375,241.725,193.8,241.725z"/>
		<path id="XMLID_134_" d="M218.875,290.6L218.875,290.6c0-5.1,4.25-9.35,9.35-9.35h114.75c5.101,0,9.351,4.25,9.351,9.35l0,0
			c0,5.1-4.25,9.35-9.351,9.35h-114.75C223.125,300.375,218.875,296.125,218.875,290.6z"/>
		<path id="XMLID_133_" d="M313.65,329.7L313.65,329.7c0,5.1-4.25,9.35-9.351,9.35h-76.075c-5.1,0-9.35-4.25-9.35-9.35l0,0
			c0-5.1,4.25-9.35,9.35-9.35h75.65C309.4,320.35,313.65,324.6,313.65,329.7z"/>
		<path id="XMLID_132_" d="M218.875,368.8L218.875,368.8c0-5.1,4.25-9.35,9.35-9.35h36.55c5.1,0,9.35,4.25,9.35,9.35l0,0
			c0,5.1-4.25,9.35-9.35,9.35h-36.55C223.125,378.15,218.875,373.9,218.875,368.8z"/>
	</g>
</g>
</svg>
