<svg id="Layer_1" data-name="Layer 1" xmlns="http://www.w3.org/2000/svg" viewBox="0 0 500 500"><defs><style>.cls-1{fill:#fff;}.cls-2{fill:none;stroke:#fff;stroke-linecap:round;stroke-miterlimit:10;stroke-width:13px;}</style></defs><title>Certbot-Icons</title><path d="M268,83.72l7.83-7.83,24.32-24.32H200.86L225.5,76.22l6.3,6.29c-42,32.66-146.86,124.09-146.86,223,2,88.64,74.53,160.6,163.18,161.83A165.59,165.59,0,0,0,416.06,301.76C416.06,207,311.83,117.29,268,83.72Z"/><path id="Path_3793" data-name="Path 3793" class="cls-1" d="M299,212.09a49.08,49.08,0,0,0-48.54,49.18A49.09,49.09,0,0,0,202,212.09a48.54,48.54,0,0,0-48.54,48.54c0,70.47,97.09,136.9,97.09,136.9s97.09-66.43,97.09-136.9A48.55,48.55,0,0,0,299,212.09Z"/><line class="cls-2" x1="275.82" y1="82.51" x2="225.42" y2="82.51"/></svg>