<?xml version="1.0" encoding="utf-8"?>
<!-- Generator: Adobe Illustrator 19.0.0, SVG Export Plug-In . SVG Version: 6.00 Build 0)  -->
<svg version="1.1" id="Layer_1" xmlns="http://www.w3.org/2000/svg" xmlns:xlink="http://www.w3.org/1999/xlink" x="0px" y="0px"
	 viewBox="-297 242.8 603.4 116.2" style="enable-background:new -297 242.8 603.4 116.2;" xml:space="preserve">
<style type="text/css">
	.st0{fill:#EC1E1E;}
</style>
<g>
	<polygon class="st0" points="-297,245.4 -297,355.8 -151.8,355.8 -151.8,324.1 -249.7,324.1 -249.7,316.2 -151.8,316.2 
		-151.8,284.8 -249.7,284.8 -249.7,276.9 -151.8,276.9 -151.8,245.4 	"/>
	<polygon class="st0" points="8.1,245.4 8.1,355.8 55.4,355.8 55.4,316.2 153.3,316.2 153.3,284.8 55.4,284.8 55.4,276.9 
		153.3,276.9 153.3,245.4 	"/>
	<polygon class="st0" points="161.2,245.4 161.2,355.8 208.5,355.8 208.5,316.2 306.4,316.2 306.4,284.8 208.5,284.8 208.5,276.9 
		306.4,276.9 306.4,245.4 	"/>
</g>
<g>
	<path d="M-143.9,245.2h10.6v4.8h-6v8.3h4.3v5.1h-4.3v8.7h6v4.8h-10.6V245.2z"/>
	<path d="M-130.8,245.2h4.6v27.3h6.1v4.3h-10.8L-130.8,245.2L-130.8,245.2z"/>
	<path d="M-117.6,245.2h10.6v4.8h-6v8.3h4.3v5.1h-4.3v8.7h6v4.8h-10.6V245.2z"/>
	<path d="M-92.2,265.9v4.3c0,1.3-0.3,2.4-0.8,3.4c-0.4,0.9-1,1.7-1.8,2.3c-0.9,0.7-2,1.1-3.6,1.1c-1.5,0-2.7-0.4-3.6-1.1
		c-0.9-0.6-1.4-1.5-1.8-2.3c-0.5-1-0.7-2.1-0.8-3.4v-18.5c0-1.2,0.3-2.4,0.8-3.4c0.4-0.9,0.9-1.7,1.8-2.4c0.9-0.6,2.1-1.1,3.6-1.1
		s2.7,0.4,3.6,1.1c0.9,0.6,1.5,1.5,1.8,2.4c0.5,1,0.7,2.1,0.8,3.4v4.3h-4.3v-4.3c0-0.9-0.2-1.5-0.7-2c-0.2-0.2-0.6-0.3-1.1-0.3
		c-0.8,0-1.2,0.6-1.4,1.2c-0.1,0.3-0.2,0.7-0.2,1.2v18.6c0,0.9,0.3,1.5,0.7,2c0.2,0.2,0.5,0.3,0.9,0.3c1,0,1.4-0.5,1.6-1.2
		c0.1-0.3,0.2-0.7,0.2-1.2V266L-92.2,265.9L-92.2,265.9z"/>
	<path d="M-90.8,250v-4.8h13.4v4.8h-4.4v26.8h-4.6V250H-90.8z"/>
	<path d="M-67.1,276.8l-2.4-13.3h-1.2v13.3h-4.6v-31.6h4.6c5.5,0,7.9,3.1,7.9,9.1c0,3.1-0.8,6-2.6,7.2l3,15.3H-67.1z M-70.7,259.1
		c0.6,0,1.5-0.1,2.2-0.7s1.2-1.8,1.2-4s-0.6-3.4-1.2-4c-0.7-0.6-1.5-0.6-2.2-0.6V259.1z"/>
	<path d="M-47.6,270.3c0,1.3-0.3,2.4-0.8,3.4c-0.4,0.9-1,1.7-1.8,2.3c-0.9,0.7-2,1.1-3.6,1.1c-1.5,0-2.7-0.4-3.6-1.1
		c-0.9-0.6-1.4-1.5-1.8-2.3c-0.5-1-0.7-2.1-0.8-3.4v-18.6c0-1.2,0.3-2.4,0.8-3.4c0.4-0.9,0.9-1.7,1.8-2.4c0.9-0.6,2.1-1.1,3.6-1.1
		s2.7,0.4,3.6,1.1c0.9,0.6,1.5,1.5,1.8,2.4c0.5,1,0.7,2.1,0.8,3.4V270.3z M-52.2,251.7c0-0.9-0.2-1.5-0.6-2
		c-0.2-0.2-0.6-0.3-0.9-0.3c-0.8,0-1.2,0.6-1.4,1.2c-0.1,0.3-0.2,0.7-0.2,1.2v18.6c0,0.9,0.2,1.5,0.6,2c0.2,0.2,0.5,0.3,0.9,0.3
		c0.8,0,1.2-0.5,1.4-1.2c0.1-0.3,0.2-0.7,0.2-1.2V251.7z"/>
	<path d="M-39.3,260.3l-0.4-1.5H-40v17.9h-4.3v-31.5h4.1l4.5,16.4l0.4,1.5h0.3v-17.9h4.3v31.6h-4.1L-39.3,260.3z"/>
	<path d="M-27.1,245.2h4.6v31.6h-4.6V245.2z"/>
	<path d="M-6.7,265.9v4.3c0,1.3-0.3,2.4-0.8,3.4c-0.4,0.9-1,1.7-1.8,2.3c-0.9,0.7-2,1.1-3.6,1.1c-1.5,0-2.7-0.4-3.6-1.1
		c-0.9-0.6-1.4-1.5-1.8-2.3c-0.5-1-0.7-2.1-0.8-3.4v-18.5c0-1.2,0.3-2.4,0.8-3.4c0.4-0.9,0.9-1.7,1.8-2.4c0.9-0.6,2.1-1.1,3.6-1.1
		s2.7,0.4,3.6,1.1c0.9,0.6,1.5,1.5,1.8,2.4c0.5,1,0.7,2.1,0.8,3.4v4.3H-11v-4.3c0-0.9-0.2-1.5-0.7-2c-0.2-0.2-0.6-0.3-1.1-0.3
		c-0.8,0-1.2,0.6-1.4,1.2c-0.1,0.3-0.2,0.7-0.2,1.2v18.6c0,0.9,0.3,1.5,0.7,2c0.2,0.2,0.5,0.3,0.9,0.3c1,0,1.4-0.5,1.6-1.2
		c0.1-0.3,0.2-0.7,0.2-1.2V266L-6.7,265.9L-6.7,265.9z"/>
	<path d="M-133.3,289.4h-6v8.3h4.3v4.8h-4.3v13.7h-4.6v-31.6h10.6V289.4z"/>
	<path d="M-122.5,316.2l-2.4-13.3h-1.2v13.3h-4.6v-31.6h4.6c5.5,0,7.9,3.1,7.9,9.1c0,3.1-0.8,6-2.6,7.2l3,15.3H-122.5z
		 M-126.1,298.6c0.6,0,1.5-0.1,2.2-0.7s1.2-1.8,1.2-4s-0.6-3.4-1.2-4c-0.7-0.6-1.5-0.6-2.2-0.6V298.6z"/>
	<path d="M-103,309.7c0,1.3-0.3,2.4-0.8,3.4c-0.4,0.9-1,1.7-1.8,2.3c-0.9,0.7-2,1.1-3.6,1.1c-1.5,0-2.7-0.4-3.6-1.1
		c-0.9-0.6-1.4-1.5-1.8-2.3c-0.5-1-0.7-2.1-0.8-3.4v-18.6c0-1.2,0.3-2.4,0.8-3.4c0.4-0.9,0.9-1.7,1.8-2.4c0.9-0.6,2.1-1.1,3.6-1.1
		s2.7,0.4,3.6,1.1c0.9,0.6,1.5,1.5,1.8,2.4c0.5,1,0.7,2.1,0.8,3.4V309.7z M-107.6,291.1c0-0.9-0.2-1.5-0.6-2
		c-0.2-0.2-0.6-0.3-0.9-0.3c-0.8,0-1.2,0.6-1.4,1.2c-0.1,0.3-0.2,0.7-0.2,1.2v18.6c0,0.9,0.2,1.5,0.6,2c0.2,0.2,0.5,0.3,0.9,0.3
		c0.8,0,1.2-0.5,1.4-1.2c0.1-0.3,0.2-0.7,0.2-1.2V291.1z"/>
	<path d="M-94.7,299.7l-0.4-1.5h-0.3v17.9h-4.3v-31.5h4.1l4.5,16.4l0.4,1.5h0.3v-17.9h4.3v31.6h-4.1L-94.7,299.7z"/>
	<path d="M-84.1,289.4v-4.8h13.4v4.8h-4.4v26.8h-4.6v-26.8H-84.1z"/>
	<path d="M-68.7,284.6h4.6v31.6h-4.6V284.6z"/>
	<path d="M-60.4,284.6h10.6v4.8h-6v8.3h4.3v5.1h-4.3v8.7h6v4.8h-10.6V284.6z"/>
	<path d="M-38.7,316.2l-2.4-13.3h-1.2v13.3H-47v-31.6h4.6c5.5,0,7.9,3.1,7.9,9.1c0,3.1-0.8,6-2.6,7.2l3,15.3H-38.7z M-42.3,298.6
		c0.6,0,1.5-0.1,2.2-0.7s1.2-1.8,1.2-4s-0.6-3.4-1.2-4c-0.7-0.6-1.5-0.6-2.2-0.6V298.6z"/>
	<path d="M-133.3,328.8h-6v8.3h4.3v4.8h-4.3v13.7h-4.6V324h10.6V328.8z"/>
	<path d="M-118.7,349.1c0,1.3-0.3,2.4-0.8,3.4c-0.4,0.9-1,1.7-1.8,2.3c-0.9,0.7-2,1.1-3.6,1.1c-1.5,0-2.7-0.4-3.6-1.1
		c-0.9-0.6-1.4-1.5-1.8-2.3c-0.5-1-0.7-2.1-0.8-3.4v-18.6c0-1.2,0.3-2.4,0.8-3.4c0.4-0.9,0.9-1.7,1.8-2.4c0.9-0.6,2.1-1.1,3.6-1.1
		s2.7,0.4,3.6,1.1c0.9,0.6,1.5,1.5,1.8,2.4c0.5,1,0.7,2.1,0.8,3.4V349.1z M-123.3,330.5c0-0.9-0.2-1.5-0.6-2
		c-0.2-0.2-0.6-0.3-0.9-0.3c-0.8,0-1.2,0.6-1.4,1.2c-0.1,0.3-0.2,0.7-0.2,1.2v18.6c0,0.9,0.2,1.5,0.6,2c0.2,0.2,0.5,0.3,0.9,0.3
		c0.8,0,1.2-0.5,1.4-1.2c0.1-0.3,0.2-0.7,0.2-1.2V330.5z"/>
	<path d="M-103,324v25.1c0,1.3-0.3,2.4-0.8,3.4c-0.4,0.9-1,1.7-1.8,2.3c-0.9,0.7-2,1.1-3.6,1.1c-1.5,0-2.7-0.4-3.6-1.1
		c-0.9-0.6-1.4-1.5-1.8-2.3c-0.5-1-0.7-2.1-0.8-3.4V324h4.6v25.1c0,0.9,0.2,1.5,0.6,2c0.2,0.2,0.5,0.3,0.9,0.3
		c0.8,0,1.2-0.5,1.4-1.2c0.1-0.3,0.2-0.7,0.2-1.2v-25L-103,324L-103,324z"/>
	<path d="M-94.5,339.1l-0.4-1.5h-0.3v18h-4.3V324h4.1l4.5,16.4l0.4,1.5h0.3V324h4.3v31.6H-90L-94.5,339.1z"/>
	<path d="M-82.2,355.6V324h3.7c4.3,0,6.6,0.9,7.9,3.3c1.2,2.4,1.4,6.4,1.4,12.5c0,6.2-0.2,10.1-1.4,12.5c-1.2,2.4-3.6,3.3-7.9,3.3
		C-78.5,355.6-82.2,355.6-82.2,355.6z M-77.6,351c1.6,0,2.5-0.2,3-1.7c0.2-0.7,0.4-1.8,0.4-3.4c0-1.5,0-3.5,0-6.1s0-4.6,0-6.1
		s-0.2-2.6-0.4-3.4c-0.5-1.5-1.4-1.7-3-1.7V351z"/>
	<path d="M-67.7,355.6l4.8-31.6h5.7l4.8,31.6H-57l-0.9-6.4h-4.5l-0.9,6.4H-67.7z M-59.8,334.3l-0.1-0.8h-0.3l-0.1,0.8l-1.3,10h3.2
		L-59.8,334.3z"/>
	<path d="M-53.1,328.8V324h13.4v4.8h-4.4v26.8h-4.6v-26.8H-53.1z"/>
	<path d="M-37,324h4.6v31.6H-37V324z"/>
	<path d="M-16.7,349.1c0,1.3-0.3,2.4-0.8,3.4c-0.4,0.9-1,1.7-1.8,2.3c-0.9,0.7-2,1.1-3.6,1.1c-1.5,0-2.7-0.4-3.6-1.1
		c-0.9-0.6-1.4-1.5-1.8-2.3c-0.5-1-0.7-2.1-0.8-3.4v-18.6c0-1.2,0.3-2.4,0.8-3.4c0.4-0.9,0.9-1.7,1.8-2.4c0.9-0.6,2.1-1.1,3.6-1.1
		s2.7,0.4,3.6,1.1c0.9,0.6,1.5,1.5,1.8,2.4c0.5,1,0.7,2.1,0.8,3.4V349.1z M-21.3,330.5c0-0.9-0.2-1.5-0.6-2
		c-0.2-0.2-0.6-0.3-0.9-0.3c-0.8,0-1.2,0.6-1.4,1.2c-0.1,0.3-0.2,0.7-0.2,1.2v18.6c0,0.9,0.2,1.5,0.6,2c0.2,0.2,0.5,0.3,0.9,0.3
		c0.8,0,1.2-0.5,1.4-1.2c0.1-0.3,0.2-0.7,0.2-1.2V330.5z"/>
	<path d="M-8.4,339.1l-0.4-1.5h-0.3v18h-4.3V324h4.1l4.5,16.4l0.4,1.5h0.3V324h4.3v31.6h-4.1L-8.4,339.1z"/>
</g>
</svg>
