<?xml version="1.0" encoding="utf-8"?>
<!-- Generator: Adobe Illustrator 16.0.0, SVG Export Plug-In . SVG Version: 6.00 Build 0)  -->
<!DOCTYPE svg PUBLIC "-//W3C//DTD SVG 1.1//EN" "http://www.w3.org/Graphics/SVG/1.1/DTD/svg11.dtd">
<svg version="1.1" id="Layer_1" xmlns="http://www.w3.org/2000/svg" xmlns:xlink="http://www.w3.org/1999/xlink" x="0px" y="0px"
	 width="605.586px" height="240.257px" viewBox="3.207 276.139 605.586 240.257"
	 enable-background="new 3.207 276.139 605.586 240.257" xml:space="preserve">
<g id="XMLID_10_">
	<g id="XMLID_54_">
		<path id="XMLID_77_" fill="#FFFFFF" d="M404.08,481.653h14.699v4.543h-9.889v10.423h8.552v4.543h-8.552v14.699h-4.811V481.653z"/>
		<path id="XMLID_74_" fill="#FFFFFF" d="M422.253,489.671c0-5.612,4.276-8.285,8.285-8.285s8.284,2.673,8.284,8.285v18.173
			c0,5.612-4.275,8.285-8.284,8.285s-8.285-2.673-8.285-8.285V489.671z M427.063,507.844c0,2.405,1.604,3.475,3.207,3.475
			c1.871,0,3.207-1.069,3.207-3.475v-18.173c0-2.405-1.604-3.475-3.207-3.475c-1.87,0-3.207,1.069-3.207,3.475V507.844z"/>
		<path id="XMLID_72_" fill="#FFFFFF" d="M462.073,508.111c0,4.543-3.474,8.018-8.018,8.018c-4.275,0-8.018-3.475-8.018-8.018
			v-26.726h4.811v26.19c0,2.405,1.337,3.475,2.94,3.475c1.87,0,2.939-1.069,2.939-3.475v-26.19h4.811v26.726H462.073z"/>
		<path id="XMLID_70_" fill="#FFFFFF" d="M469.289,481.653h4.811l7.483,20.846l0,0v-20.846h4.81v34.476h-4.543l-7.482-20.579l0,0
			v20.579h-4.811v-34.476H469.289z"/>
		<path id="XMLID_67_" fill="#FFFFFF" d="M493.876,481.653h7.216c5.612,0,8.552,3.207,8.552,8.819v16.035
			c0,6.414-3.207,9.354-9.086,9.354h-6.949v-34.208H493.876z M498.687,511.318h2.138c2.673,0,3.742-1.337,3.742-4.276v-16.569
			c0-2.673-0.802-4.276-3.742-4.276h-2.138V511.318z"/>
		<path id="XMLID_64_" fill="#FFFFFF" d="M522.204,481.653h4.009l7.75,34.476h-4.811l-1.336-7.483h-6.681l-1.337,7.483h-4.811
			L522.204,481.653z M524.343,491.541L524.343,491.541l-2.405,12.562h4.811L524.343,491.541z"/>
		<path id="XMLID_62_" fill="#FFFFFF" d="M539.843,486.196h-5.612v-4.543h16.303v4.543h-5.612v29.665h-5.078V486.196z"/>
		<path id="XMLID_60_" fill="#FFFFFF" d="M555.61,481.653h4.811v34.476h-4.811V481.653z"/>
		<path id="XMLID_57_" fill="#FFFFFF" d="M568.171,489.671c0-5.612,4.276-8.285,8.285-8.285s8.284,2.673,8.284,8.285v18.173
			c0,5.612-4.275,8.285-8.284,8.285s-8.285-2.673-8.285-8.285V489.671z M572.981,507.844c0,2.405,1.604,3.475,3.207,3.475
			c1.871,0,3.207-1.069,3.207-3.475v-18.173c0-2.405-1.604-3.475-3.207-3.475c-1.87,0-3.207,1.069-3.207,3.475V507.844z"/>
		<path id="XMLID_55_" fill="#FFFFFF" d="M591.689,481.653h4.811l7.482,20.846l0,0v-20.846h4.811v34.476h-4.543l-7.483-20.579l0,0
			v20.579h-4.811v-34.476H591.689z"/>
	</g>
	<g id="XMLID_31_">
		<path id="XMLID_52_" fill="#FFFFFF" d="M3.207,481.653h14.699v4.543H8.285v10.155h8.552v4.544H8.285v10.155h9.888v4.811H3.207
			V481.653z"/>
		<path id="XMLID_50_" fill="#FFFFFF" d="M24.052,481.653h4.811v29.397h9.888v4.811H24.052V481.653z"/>
		<path id="XMLID_48_" fill="#FFFFFF" d="M44.898,481.653h14.699v4.543h-9.888v10.155h8.552v4.544h-8.552v10.155h9.888v4.811H44.898
			V481.653z"/>
		<path id="XMLID_46_" fill="#FFFFFF" d="M81.244,508.378c0,4.276-3.474,8.018-7.75,8.018c-3.742,0-8.018-1.87-8.018-8.018v-18.975
			c0-4.543,3.207-8.018,8.018-8.018c4.543,0,8.017,3.475,8.017,8.285v1.87H76.7v-1.603c0-1.871-1.069-3.475-2.939-3.475
			c-2.405,0-2.94,1.604-2.94,4.009v17.639c0,1.87,0.802,3.474,2.94,3.474c1.336,0,3.207-0.802,3.207-3.474v-1.871h4.811v2.138
			H81.244z"/>
		<path id="XMLID_44_" fill="#FFFFFF" d="M90.063,486.196h-5.612v-4.543h16.302v4.543h-5.612v29.665H90.33v-29.665H90.063z"/>
		<path id="XMLID_41_" fill="#FFFFFF" d="M105.831,481.653h8.018c5.879,0,8.819,3.475,8.819,10.155c0,4.009-1.069,6.948-4.276,8.552
			l5.345,15.769h-5.345l-4.543-14.699h-2.94v14.699h-4.811v-34.476H105.831z M110.641,496.887h2.672
			c3.474,0,4.009-1.871,4.009-5.346c0-3.474-0.535-5.345-4.276-5.345h-2.672v10.69H110.641z"/>
		<path id="XMLID_38_" fill="#FFFFFF" d="M128.814,489.671c0-5.612,4.276-8.285,8.285-8.285s8.285,2.673,8.285,8.285v18.173
			c0,5.612-4.276,8.285-8.285,8.285s-8.285-2.673-8.285-8.285V489.671z M133.892,507.844c0,2.405,1.604,3.475,3.207,3.475
			c1.871,0,3.207-1.069,3.207-3.475v-18.173c0-2.405-1.604-3.475-3.207-3.475c-1.871,0-3.207,1.069-3.207,3.475V507.844z"/>
		<path id="XMLID_36_" fill="#FFFFFF" d="M152.599,481.653h4.811l7.483,20.846l0,0v-20.846h4.811v34.476h-4.543l-7.483-20.579l0,0
			v20.579h-4.811v-34.476H152.599z"/>
		<path id="XMLID_34_" fill="#FFFFFF" d="M177.186,481.653h4.811v34.476h-4.811V481.653z"/>
		<path id="XMLID_32_" fill="#FFFFFF" d="M205.515,508.378c0,4.276-3.475,8.018-7.75,8.018c-3.742,0-8.018-1.87-8.018-8.018v-18.975
			c0-4.543,3.207-8.018,8.018-8.018c4.543,0,8.018,3.475,8.018,8.285v1.87h-5.345v-1.603c0-1.871-1.069-3.475-2.939-3.475
			c-2.405,0-2.94,1.604-2.94,4.009v17.639c0,1.87,0.802,3.474,2.94,3.474c1.336,0,3.207-0.802,3.207-3.474v-1.871h4.811V508.378z"/>
	</g>
	<g id="XMLID_11_">
		<path id="XMLID_29_" fill="#FFFFFF" d="M224.222,481.653h14.699v4.543h-9.888v10.423h8.552v4.543h-8.552v14.699h-4.811V481.653z"
			/>
		<path id="XMLID_26_" fill="#FFFFFF" d="M245.067,481.653h8.018c5.879,0,8.819,3.475,8.819,10.155c0,4.009-1.069,6.948-4.276,8.552
			l5.345,15.769h-5.345l-4.543-14.699h-2.94v14.699h-4.811v-34.476H245.067z M249.878,496.887h2.672
			c3.474,0,4.009-1.871,4.009-5.346c0-3.474-0.535-5.345-4.276-5.345h-2.673v10.69H249.878z"/>
		<path id="XMLID_23_" fill="#FFFFFF" d="M268.318,489.671c0-5.612,4.276-8.285,8.285-8.285s8.285,2.673,8.285,8.285v18.173
			c0,5.612-4.276,8.285-8.285,8.285s-8.285-2.673-8.285-8.285V489.671z M273.128,507.844c0,2.405,1.604,3.475,3.207,3.475
			c1.871,0,3.207-1.069,3.207-3.475v-18.173c0-2.405-1.604-3.475-3.207-3.475c-1.871,0-3.207,1.069-3.207,3.475V507.844z"/>
		<path id="XMLID_21_" fill="#FFFFFF" d="M291.836,481.653h4.811l7.483,20.846l0,0v-20.846h4.81v34.476h-4.543l-7.483-20.579l0,0
			v20.579h-4.811v-34.476H291.836z"/>
		<path id="XMLID_19_" fill="#FFFFFF" d="M319.63,486.196h-5.612v-4.543h16.302v4.543h-5.612v29.665h-4.811v-29.665H319.63z"/>
		<path id="XMLID_17_" fill="#FFFFFF" d="M335.397,481.653h4.811v34.476h-4.811V481.653z"/>
		<path id="XMLID_15_" fill="#FFFFFF" d="M347.958,481.653h14.699v4.543h-9.889v10.155h8.552v4.544h-8.552v10.155h9.889v4.811
			h-14.699V481.653z"/>
		<path id="XMLID_12_" fill="#FFFFFF" d="M368.804,481.653h8.018c5.879,0,8.819,3.475,8.819,10.155c0,4.009-1.069,6.948-4.276,8.552
			l5.345,15.769h-5.345l-4.543-14.699h-2.94v14.699h-5.077V481.653z M373.614,496.887h2.672c3.475,0,4.009-1.871,4.009-5.346
			c0-3.474-0.534-5.345-4.275-5.345h-2.673v10.69H373.614z"/>
	</g>
</g>
<g id="XMLID_2_">
	<path id="XMLID_3_" fill="#FFFFFF" d="M344.483,276.139c-23.25,0-44.63,9.087-60.398,24.053H171.841h-5.345v5.345v117.055v5.346
		h5.345h112.245c15.768,14.966,36.88,24.052,60.398,24.052c48.64,0,87.926-39.285,87.926-87.924
		C432.142,315.424,392.855,276.139,344.483,276.139z M258.43,345.624H229.3v-15.5h33.94
		C261.102,334.934,259.499,340.279,258.43,345.624z M263.24,397.737H229.3v-21.915h28.061
		C258.43,383.306,260.3,390.789,263.24,397.737z M171.841,422.324V305.269h106.9h39.553v19.509h-52.648h-41.691v25.923h33.406
		h57.726v19.509h-58.261h-32.872v32.604h41.691h52.648v19.51h-39.553H171.841z M357.312,380.099h-9.888v13.095h6.414v9.888h-6.414
		v19.51h-9.889v-52.114h19.51v9.621H357.312z M357.312,315.157h-9.888v13.095h6.414v9.621h-6.414v19.509h-9.889v-52.114h19.51v9.888
		H357.312z"/>
</g>
</svg>
