<svg xmlns="http://www.w3.org/2000/svg" viewBox="0 0 169.201 31.13">
  <defs>
    <style>
      .cls-1 {
        opacity: 0.998;
      }

      .cls-2 {
        fill: #fff;
      }
    </style>
  </defs>
  <g id="Group_184" data-name="Group 184" class="cls-1" transform="translate(0 0.1)">
    <g id="Group_182" data-name="Group 182" transform="translate(42.832 -0.1)">
      <path id="Path_95" data-name="Path 95" class="cls-2" d="M153.1.3h3V1.644h-1.68V3.967h1.2V5.4h-1.2V7.831h1.68V9.174h-3Z" transform="translate(-153.072 -0.188)"/>
      <path id="Path_96" data-name="Path 96" class="cls-2" d="M166.3.3h1.316V7.943h1.736v1.2H166.3Z" transform="translate(-162.577 -0.188)"/>
      <path id="Path_97" data-name="Path 97" class="cls-2" d="M179.6.3h3V1.644h-1.68V3.967h1.2V5.4h-1.2V7.831h1.68V9.174h-3Z" transform="translate(-172.153 -0.188)"/>
      <path id="Path_98" data-name="Path 98" class="cls-2" d="M196.2,5.835v1.2a2.076,2.076,0,0,1-.224.952,1.47,1.47,0,0,1-.532.644,1.546,1.546,0,0,1-1.008.308,1.494,1.494,0,0,1-1.008-.308,1.564,1.564,0,0,1-.5-.644,2.505,2.505,0,0,1-.224-.952V1.832a2.165,2.165,0,0,1,.224-.952,1.931,1.931,0,0,1,.5-.672A1.794,1.794,0,0,1,194.436-.1a1.547,1.547,0,0,1,1.008.308,1.542,1.542,0,0,1,.532.672,2.506,2.506,0,0,1,.224.952v1.2h-1.232v-1.2a.722.722,0,0,0-.2-.56.45.45,0,0,0-.308-.084.419.419,0,0,0-.392.336,1.044,1.044,0,0,0-.056.336V7.067a.843.843,0,0,0,.2.56.342.342,0,0,0,.252.084.412.412,0,0,0,.448-.336,1.045,1.045,0,0,0,.056-.336v-1.2H196.2Z" transform="translate(-181.586 0.1)"/>
      <path id="Path_99" data-name="Path 99" class="cls-2" d="M206.6,1.644V.3h3.779V1.644h-1.232v7.5h-1.316v-7.5Z" transform="translate(-191.595 -0.188)"/>
      <path id="Path_100" data-name="Path 100" class="cls-2" d="M224.452,9.146l-.672-3.723h-.364V9.146H222.1V.3h1.316c1.568,0,2.24.868,2.24,2.548a2.433,2.433,0,0,1-.728,2.016l.84,4.283h-1.316Zm-1.036-4.927a.94.94,0,0,0,.616-.2A1.413,1.413,0,0,0,224.4,2.9a1.413,1.413,0,0,0-.364-1.12.9.9,0,0,0-.616-.168Z" transform="translate(-202.755 -0.188)"/>
      <path id="Path_101" data-name="Path 101" class="cls-2" d="M241.1,7.039a2.076,2.076,0,0,1-.224.952,1.47,1.47,0,0,1-.532.644,1.546,1.546,0,0,1-1.008.308,1.494,1.494,0,0,1-1.008-.308,1.564,1.564,0,0,1-.5-.644,2.5,2.5,0,0,1-.224-.952V1.832a2.165,2.165,0,0,1,.224-.952,1.931,1.931,0,0,1,.5-.672A1.794,1.794,0,0,1,239.336-.1a1.546,1.546,0,0,1,1.008.308,1.542,1.542,0,0,1,.532.672,2.505,2.505,0,0,1,.224.952Zm-1.316-5.207a.836.836,0,0,0-.168-.56.426.426,0,0,0-.672.252,1.044,1.044,0,0,0-.056.336V7.067a.836.836,0,0,0,.168.56.342.342,0,0,0,.252.084.393.393,0,0,0,.392-.336,1.044,1.044,0,0,0,.056-.336V1.832Z" transform="translate(-213.916 0.1)"/>
      <path id="Path_102" data-name="Path 102" class="cls-2" d="M254.8,4.555l-.112-.42H254.6V9.146h-1.2V.3h1.176l1.26,4.591.112.42h.084V.3h1.2V9.146h-1.148Z" transform="translate(-225.293 -0.188)"/>
      <path id="Path_103" data-name="Path 103" class="cls-2" d="M270.8.3h1.316V9.146H270.8Z" transform="translate(-237.822 -0.188)"/>
      <path id="Path_104" data-name="Path 104" class="cls-2" d="M282.3,5.835v1.2a2.076,2.076,0,0,1-.224.952,1.47,1.47,0,0,1-.532.644,1.546,1.546,0,0,1-1.008.308,1.494,1.494,0,0,1-1.008-.308,1.564,1.564,0,0,1-.5-.644,2.5,2.5,0,0,1-.224-.952V1.832a2.164,2.164,0,0,1,.224-.952,1.93,1.93,0,0,1,.5-.672A1.794,1.794,0,0,1,280.536-.1a1.546,1.546,0,0,1,1.008.308,1.542,1.542,0,0,1,.532.672,2.5,2.5,0,0,1,.224.952v1.2h-1.232v-1.2a.722.722,0,0,0-.2-.56.45.45,0,0,0-.308-.084.419.419,0,0,0-.392.336,1.043,1.043,0,0,0-.056.336V7.067a.843.843,0,0,0,.2.56.342.342,0,0,0,.252.084.412.412,0,0,0,.448-.336,1.045,1.045,0,0,0,.056-.336v-1.2H282.3Z" transform="translate(-243.582 0.1)"/>
      <path id="Path_105" data-name="Path 105" class="cls-2" d="M156,41.116h-1.68v2.324h1.2v1.344h-1.2v3.835H153V39.8h3Z" transform="translate(-153 -28.63)"/>
      <path id="Path_106" data-name="Path 106" class="cls-2" d="M168.652,48.618l-.7-3.723h-.336v3.723H166.3V39.8h1.316c1.568,0,2.24.868,2.24,2.548a2.433,2.433,0,0,1-.728,2.016l.84,4.283h-1.316Zm-1.036-4.927a.94.94,0,0,0,.616-.2,1.9,1.9,0,0,0,0-2.24.9.9,0,0,0-.616-.168Z" transform="translate(-162.577 -28.63)"/>
      <path id="Path_107" data-name="Path 107" class="cls-2" d="M185.3,46.539a2.076,2.076,0,0,1-.224.952,1.47,1.47,0,0,1-.532.644,1.547,1.547,0,0,1-1.008.308,1.494,1.494,0,0,1-1.008-.308,1.564,1.564,0,0,1-.5-.644,2.505,2.505,0,0,1-.224-.952V41.332a2.165,2.165,0,0,1,.224-.952,1.931,1.931,0,0,1,.5-.672,1.794,1.794,0,0,1,1.008-.308,1.605,1.605,0,0,1,1.54.98,2.5,2.5,0,0,1,.224.952Zm-1.316-5.207a.836.836,0,0,0-.168-.56.426.426,0,0,0-.672.252,1.044,1.044,0,0,0-.056.336v5.207a.836.836,0,0,0,.168.56.342.342,0,0,0,.252.084.393.393,0,0,0,.392-.336,1.044,1.044,0,0,0,.056-.336V41.332Z" transform="translate(-173.737 -28.342)"/>
      <path id="Path_108" data-name="Path 108" class="cls-2" d="M199.072,44.027l-.112-.42H198.9v5.011h-1.2V39.8h1.176l1.26,4.591.112.42h.084V39.8h1.2v8.846h-1.176Z" transform="translate(-185.186 -28.63)"/>
      <path id="Path_109" data-name="Path 109" class="cls-2" d="M213.3,41.044V39.7h3.779v1.344h-1.232v7.5h-1.316v-7.5Z" transform="translate(-196.419 -28.558)"/>
      <path id="Path_110" data-name="Path 110" class="cls-2" d="M228.9,39.8h1.316v8.846H228.9Z" transform="translate(-207.652 -28.63)"/>
      <path id="Path_111" data-name="Path 111" class="cls-2" d="M237.2,39.8h3v1.344h-1.68v2.324h1.2V44.9h-1.2v2.436h1.68v1.344h-3Z" transform="translate(-213.628 -28.63)"/>
      <path id="Path_112" data-name="Path 112" class="cls-2" d="M252.98,48.618l-.7-3.723h-.364v3.723H250.6V39.8h1.316c1.568,0,2.24.868,2.24,2.548a2.433,2.433,0,0,1-.728,2.016l.84,4.283H252.98Zm-1.036-4.927a.94.94,0,0,0,.616-.2,1.9,1.9,0,0,0,0-2.24.9.9,0,0,0-.616-.168Z" transform="translate(-223.277 -28.63)"/>
      <path id="Path_113" data-name="Path 113" class="cls-2" d="M156.1,80.544h-1.68v2.324h1.2v1.316h-1.2v3.835H153.1V79.2h3Z" transform="translate(-153.072 -57)"/>
      <path id="Path_114" data-name="Path 114" class="cls-2" d="M169.5,85.939a2.076,2.076,0,0,1-.224.952,1.47,1.47,0,0,1-.532.644,1.547,1.547,0,0,1-1.008.308,1.494,1.494,0,0,1-1.008-.308,1.565,1.565,0,0,1-.5-.644,2.505,2.505,0,0,1-.224-.952V80.732a2.166,2.166,0,0,1,.224-.952,1.931,1.931,0,0,1,.5-.672,1.794,1.794,0,0,1,1.008-.308,1.605,1.605,0,0,1,1.54.98,2.505,2.505,0,0,1,.224.952Zm-1.316-5.207a.836.836,0,0,0-.168-.56.426.426,0,0,0-.672.252,1.044,1.044,0,0,0-.056.336v5.207a.836.836,0,0,0,.168.56.342.342,0,0,0,.252.084.393.393,0,0,0,.392-.336,1.045,1.045,0,0,0,.056-.336V80.732Z" transform="translate(-162.361 -56.712)"/>
      <path id="Path_115" data-name="Path 115" class="cls-2" d="M185.3,79.2v7.027a2.076,2.076,0,0,1-.224.952,1.47,1.47,0,0,1-.532.644,1.547,1.547,0,0,1-1.008.308,1.494,1.494,0,0,1-1.008-.308,1.564,1.564,0,0,1-.5-.644,2.505,2.505,0,0,1-.224-.952V79.2h1.316v7.027a.836.836,0,0,0,.168.56.342.342,0,0,0,.252.084.393.393,0,0,0,.392-.336,1.044,1.044,0,0,0,.056-.336v-7Z" transform="translate(-173.737 -57)"/>
      <path id="Path_116" data-name="Path 116" class="cls-2" d="M199.2,83.427l-.112-.42H199v5.011h-1.2V79.2h1.176l1.26,4.591.112.42h.084V79.2h1.2v8.846H200.46Z" transform="translate(-185.258 -57)"/>
      <path id="Path_117" data-name="Path 117" class="cls-2" d="M215.2,88.046V79.2h1.036c1.2,0,1.876.252,2.212.924a8.884,8.884,0,0,1,.392,3.5,8.8,8.8,0,0,1-.392,3.5c-.364.672-1.008.924-2.212.924Zm1.316-1.316c.448,0,.7-.056.84-.476a3.485,3.485,0,0,0,.112-.952V81.888a3.829,3.829,0,0,0-.112-.952c-.14-.42-.392-.476-.84-.476Z" transform="translate(-197.787 -57)"/>
      <path id="Path_118" data-name="Path 118" class="cls-2" d="M229.9,88.046l1.344-8.846h1.6l1.344,8.846h-1.26l-.252-1.792h-1.26l-.252,1.792Zm2.212-5.963-.028-.224H232l-.028.224-.364,2.8h.9Z" transform="translate(-208.372 -57)"/>
      <path id="Path_119" data-name="Path 119" class="cls-2" d="M244.6,80.544V79.2h3.779v1.344h-1.232v7.5h-1.316v-7.5Z" transform="translate(-218.957 -57)"/>
      <path id="Path_120" data-name="Path 120" class="cls-2" d="M260.7,79.2h1.316v8.846H260.7Z" transform="translate(-230.549 -57)"/>
      <path id="Path_121" data-name="Path 121" class="cls-2" d="M272.2,85.939a2.076,2.076,0,0,1-.224.952,1.47,1.47,0,0,1-.532.644,1.547,1.547,0,0,1-1.008.308,1.494,1.494,0,0,1-1.008-.308,1.564,1.564,0,0,1-.5-.644,2.5,2.5,0,0,1-.224-.952V80.732a2.165,2.165,0,0,1,.224-.952,1.931,1.931,0,0,1,.5-.672,1.794,1.794,0,0,1,1.008-.308,1.605,1.605,0,0,1,1.54.98,2.5,2.5,0,0,1,.224.952Zm-1.288-5.207a.836.836,0,0,0-.168-.56.426.426,0,0,0-.672.252,1.045,1.045,0,0,0-.056.336v5.207a.836.836,0,0,0,.168.56.342.342,0,0,0,.252.084.393.393,0,0,0,.392-.336,1.045,1.045,0,0,0,.056-.336V80.732Z" transform="translate(-236.31 -56.712)"/>
      <path id="Path_122" data-name="Path 122" class="cls-2" d="M285.9,83.427l-.112-.42H285.7v5.011h-1.2V79.2h1.176l1.26,4.591.112.42h.084V79.2h1.2v8.846H287.16Z" transform="translate(-247.687 -57)"/>
    </g>
    <g id="Group_183" data-name="Group 183" transform="translate(0 0.04)">
      <path id="Path_123" data-name="Path 123" class="cls-2" d="M0,.4V31.278H40.649V22.46H13.242V20.248H40.649V11.43H13.242V9.218H40.649V.4Z" transform="translate(0 -0.4)"/>
      <path id="Path_124" data-name="Path 124" class="cls-2" d="M306.2.4V31.278h13.242V20.248h27.379V11.43H319.442V9.218h27.379V.4Z" transform="translate(-220.48 -0.4)"/>
      <path id="Path_125" data-name="Path 125" class="cls-2" d="M459.2.4V31.278h13.242V20.248h27.407V11.43H472.442V9.218h27.407V.4Z" transform="translate(-330.647 -0.4)"/>
    </g>
  </g>
</svg>
