<svg id="Layer_1" data-name="Layer 1" xmlns="http://www.w3.org/2000/svg" viewBox="0 0 500 500"><defs><style>.cls-1{fill:#fff;}</style></defs><title>Certbot-Icons</title><path d="M391.56,231.48V185.85h0c0-.22,0-.44,0-.66a144.48,144.48,0,0,0-289,0c0,.22,0,.44,0,.66h0v45.63h-24V499.42h337V231.48Zm-231.71,0-.2-45.87c0-.36,0-.71,0-1.07a87.45,87.45,0,0,1,174.89,0c0,.36,0,.71,0,1.07l-.18,45.87Z"/><polygon class="cls-1" points="345.8 310.6 315.43 280.23 205.78 389.87 178.74 362.83 148.36 393.21 205.83 450.67 236.2 420.29 236.16 420.25 345.8 310.6"/></svg>