<svg id="Layer_1" data-name="Layer 1" xmlns="http://www.w3.org/2000/svg" viewBox="0 0 500 500"><title>Certbot-Icons</title><path d="M479.09,216.61l-40.8-4.17a174.18,174.18,0,0,0-24.57-58.88l26-31.53a10.1,10.1,0,0,0,0-13.91L401.21,69.64a10.08,10.08,0,0,0-13.91,0l-31.53,26A195.54,195.54,0,0,0,296.89,71l-4.18-40.8A10.29,10.29,0,0,0,282.52,20H228.27a10.3,10.3,0,0,0-10.2,10.2L213.9,71A174.38,174.38,0,0,0,155,95.6l-31.53-26a10.08,10.08,0,0,0-13.91,0L71.1,108.12a10.08,10.08,0,0,0,0,13.91l26,31.53a195.44,195.44,0,0,0-24.57,58.88l-40.33,4.17A10.29,10.29,0,0,0,22,226.81v54.24a10.28,10.28,0,0,0,10.2,10.2L73,295.43a174.35,174.35,0,0,0,24.57,58.88l-26,31.52a10.08,10.08,0,0,0,0,13.91l38.48,38.48a10.08,10.08,0,0,0,13.91,0l31.52-26a195.4,195.4,0,0,0,58.88,24.57l4.17,40.8a10.3,10.3,0,0,0,10.2,10.2H283a10.3,10.3,0,0,0,10.2-10.2l4.17-40.8a174.46,174.46,0,0,0,58.88-24.57l31.53,26a10.08,10.08,0,0,0,13.91,0l38.48-38.48a10.08,10.08,0,0,0,0-13.91l-26-31.52a195.42,195.42,0,0,0,24.58-58.88l40.8-4.18a10.28,10.28,0,0,0,10.19-10.2v-54.7A10.61,10.61,0,0,0,479.09,216.61Zm-218.37,185c-85.3,2.78-155.77-67.23-153-153C110.05,173,175.42,108.12,251,105.34c85.31-2.78,155.78,67.22,153,153C401.2,333.91,335.83,399.28,260.72,401.6Z"/><path d="M255.62,334.37A80.67,80.67,0,1,1,336.3,253.7,80.73,80.73,0,0,1,255.62,334.37Zm0-121.93a41.26,41.26,0,1,0,41.27,41.26A41.35,41.35,0,0,0,255.62,212.44Z"/></svg>