<svg id="Layer_1" data-name="Layer 1" xmlns="http://www.w3.org/2000/svg" viewBox="0 0 500 500"><title>Certbot-Icons</title><path d="M106.88,329.23C95.39,346.25,79.21,356,62.2,356c-17.45,0-33.18-9.36-45.09-26.38A105.24,105.24,0,0,1,.51,271.36a105.27,105.27,0,0,1,16.6-58.29c11.48-17,27.66-26.38,44.67-26.38s33.18,9.36,45.1,26.38a91,91,0,0,1,14.88,38.72,5.87,5.87,0,0,0,5.53,4.68L494,256.05a6.35,6.35,0,0,1,6,5.53v17.87a6.35,6.35,0,0,1-5.53,5.95H474.05a5.73,5.73,0,0,0-5.53,5.93V367.1a6.36,6.36,0,0,1-5.53,6h-85.1a6.35,6.35,0,0,1-6-5.53V291.79a5.73,5.73,0,0,0-5.93-5.53h-5.13a5.73,5.73,0,0,0-5.53,5.93v57.88a6.36,6.36,0,0,1-5.53,6H336.63a6.35,6.35,0,0,1-5.95-5.53V292.63a5.74,5.74,0,0,0-5.93-5.53h-197a5.53,5.53,0,0,0-5.53,4.68A104.19,104.19,0,0,1,106.88,329.23ZM61.76,210.52c-20.42,0-37.87,28.08-37.87,60.84s17.45,60.85,38.29,60.85,37.87-28.09,37.87-60.85S82.19,210.52,61.76,210.52Z"/></svg>