<svg id="Layer_1" data-name="Layer 1" xmlns="http://www.w3.org/2000/svg" viewBox="0 0 500 500"><defs><style>.cls-1{fill:#fff;}.cls-2,.cls-3{stroke:#000;stroke-width:10px;}.cls-2{stroke-miterlimit:10;}.cls-3{stroke-linejoin:round;}</style></defs><title>Certbot-Icons</title><path class="cls-1" d="M398.87,156.57A145.89,145.89,0,0,0,261.51,10.93c-89-5.14-162.41,71.25-153.73,160a145.67,145.67,0,0,0,54,99.49.1.1,0,0,1,.05.08c.75,14.52,2.7,54.18,2.7,73.29,0,34.07,39.29,44.84,41.27,45.36a.11.11,0,0,1,.08.11l.91,57.59s0,17.86,10.62,17.86a15.64,15.64,0,0,1,14.48,10.61c1.92,5.76,7.66,10.56,21,10.62h.21c13.34-.06,19.08-4.86,21-10.62a15.66,15.66,0,0,1,14.49-10.61c10.62,0,10.62-17.86,10.62-17.86l.91-57.59a.1.1,0,0,1,.08-.11c2-.52,41.26-11.29,41.26-45.36,0-19.11,2-58.77,2.71-73.29a.12.12,0,0,1,0-.08A145.62,145.62,0,0,0,398.87,156.57Z"/><path class="cls-2" d="M252.42,494.64h0c-9-.12-24.05-2.5-28.74-16.55a6.92,6.92,0,0,0-6.36-4.67c-4,0-13.48-1.62-17.5-15.15A43.94,43.94,0,0,1,198.09,447l-.82-51.39c-17.72-6.54-41.44-22.85-41.44-51.76,0-17.32-1.62-51.67-2.5-69.07A154.74,154.74,0,0,1,262,2.26C343.62,7,407.56,74.75,407.56,156.57a153.9,153.9,0,0,1-54.93,118.16c-.88,17.4-2.5,51.73-2.5,69.07,0,28.91-23.72,45.21-41.45,51.76L307.87,447a44.14,44.14,0,0,1-1.69,11.31c-4,13.53-13.47,15.11-17.49,15.15a7,7,0,0,0-6.38,4.71c-4.76,14.27-20.33,16.48-29.19,16.51Zm.56-17.41.43,0c4.21-.05,11.13-.75,12.44-4.68A24.38,24.38,0,0,1,288.33,456c1.09-1.28,2.17-5.78,2.17-9.18v-.14l.91-57.59a8.82,8.82,0,0,1,6.55-8.37c1.42-.37,34.8-9.48,34.8-37,0-19.11,1.9-57.93,2.72-73.74l.2-3.86,3.05-2.52a136.68,136.68,0,0,0,51.46-107.11c0-72.63-56.74-132.8-129.18-137A137.2,137.2,0,0,0,167.2,263.66l3,2.43.24,4c.82,15.82,2.72,54.66,2.72,73.74,0,27.48,33.37,36.59,34.79,37a8.82,8.82,0,0,1,6.55,8.42l.91,57.68c0,3.47,1.1,7.91,2.17,9.18a24.39,24.39,0,0,1,22.48,16.5c1.32,4,8.2,4.67,12.45,4.72Zm-55.8-87.82v0Zm111.6-.05v0Z"/><path class="cls-3" d="M323.88,75.59c13.34,8.19,24.1,20.7,31.47,35a104.18,104.18,0,0,1,0,94.06c-7.37,14.34-18.14,26.86-31.49,35a225.89,225.89,0,0,0,10.9-20,154,154,0,0,0,8-20.29,138.77,138.77,0,0,0,0-83.63,153.6,153.6,0,0,0-8-20.3A226,226,0,0,0,323.88,75.59Z"/><rect class="cls-2" x="210.17" y="380.47" width="85.63" height="17.37"/></svg>