<svg id="Layer_1" data-name="Layer 1" xmlns="http://www.w3.org/2000/svg" viewBox="0 0 500 500"><defs><style>.cls-1{fill:#fff;}</style></defs><title>Certbot-Icons</title><path d="M161.49,233.92l.68-32.36h.14l1.07-56.82c0-.4,0-.8,0-1.2a86.51,86.51,0,0,1,173,3.71c0,.38,0,.76,0,1.14l-.51,22h56.49l.44-20.64h0c0-.22,0-.43,0-.66A142.93,142.93,0,0,0,107,143c0,.22,0,.44,0,.66h0l-1.91,90.23H80.4V499H413.76V233.92Z"/><polygon class="cls-1" points="331.98 322.09 301.6 291.71 247.08 346.23 192.56 291.71 162.19 322.09 216.71 376.61 162.19 431.13 192.56 461.5 247.08 406.99 301.6 461.5 331.98 431.13 277.46 376.61 331.98 322.09"/></svg>