<svg id="Layer_1" data-name="Layer 1" xmlns="http://www.w3.org/2000/svg" viewBox="0 0 500 500"><defs><style>.cls-1{fill:none;}</style></defs><title>Certbot-Icons</title><circle class="cls-1" cx="198.55" cy="201.69" r="142.09"/><path d="M489.71,447l-127-127a201.25,201.25,0,0,0,38.25-118.27c0-111.6-90.79-202.4-202.39-202.4S-3.85,90.09-3.85,201.69s90.79,202.4,202.4,202.4a201.39,201.39,0,0,0,122-41L447.07,489.62A30.15,30.15,0,0,0,489.71,447ZM56.46,201.69c0-78.35,63.74-142.09,142.09-142.09s142.09,63.74,142.09,142.09S276.9,343.78,198.55,343.78,56.46,280,56.46,201.69Z"/></svg>