<svg xmlns="http://www.w3.org/2000/svg" width="71.007" height="140.755" viewBox="0 0 71.007 140.755">
  <g id="Group_2498" data-name="Group 2498" transform="translate(15935.13 1324.501)">
    <path id="Path_134" data-name="Path 134" d="M1730.528,191.55l-34.978,39.855v88.173l34.978-39.866Z" transform="translate(-17630.496 -1516.051)" fill="#6b6c6c"/>
    <path id="Path_3574" data-name="Path 3574" d="M1731.458,366.462l.086-88.416L1695.3,265.54l-.086,88.416Z" transform="translate(-17630.34 -1550.208)" fill="#e6e6e6"/>
    <path id="Path_132" data-name="Path 132" d="M1797.107,215.11l-34.977,39.866v88.163l34.977-39.855Z" transform="translate(-17661.23 -1526.927)" fill="#b7b7b7"/>
    <path id="Path_167" data-name="Path 167" d="M1730.487,191.55l35.888,12.684-34.713,39.656-36.292-12.506Z" transform="translate(-17630.5 -1516.051)" fill="#f4f4f4"/>
    <path id="Path_168" data-name="Path 168" d="M1730.248,326.01l-29.158-11.483V310.78l29.158,11.5Z" transform="translate(-17633.055 -1571.092)" fill="#333"/>
    <path id="Path_169" data-name="Path 169" d="M1730.38,341.25,1701.33,329.8V326.16l29.05,11.456Z" transform="translate(-17633.164 -1578.192)" fill="#333"/>
    <path id="Path_170" data-name="Path 170" d="M1730.248,358.471l-29.158-11.5V343.23l29.158,11.5Z" transform="translate(-17633.055 -1586.072)" fill="#333"/>
    <path id="Path_171" data-name="Path 171" d="M1730.38,373.716l-29.05-11.456V358.62l29.05,11.456Z" transform="translate(-17633.164 -1593.176)" fill="#333"/>
    <path id="Path_172" data-name="Path 172" d="M1730.248,326.01l-29.158-11.483V310.78l29.158,11.5Z" transform="translate(-17633.055 -1571.092)" fill="#707070"/>
    <path id="Path_173" data-name="Path 173" d="M1730.38,341.25,1701.33,329.8V326.16l29.05,11.456Z" transform="translate(-17633.164 -1578.192)" fill="#707070"/>
    <path id="Path_174" data-name="Path 174" d="M1730.248,358.471l-29.158-11.5V343.23l29.158,11.5Z" transform="translate(-17633.055 -1586.072)" fill="#707070"/>
    <path id="Path_175" data-name="Path 175" d="M1730.38,373.716l-29.05-11.456V358.62l29.05,11.456Z" transform="translate(-17633.164 -1593.176)" fill="#707070"/>
    <path id="Path_3575" data-name="Path 3575" d="M1730.487,191.55l35.888,12.684-34.713,39.656-36.292-12.506Z" transform="translate(-17630.5 -1516.051)" fill="#ddd"/>
    <path id="Path_3576" data-name="Path 3576" d="M1,0C2.1,0,4,.9,4,2A2,2,0,0,1,2,4C.9,4-1,3.1-1,2A2,2,0,0,1,1,0Z" transform="translate(-15906 -1217)" fill="#ed1c24"/>
  </g>
</svg>
