<svg id="Layer_1" data-name="Layer 1" xmlns="http://www.w3.org/2000/svg" viewBox="0 0 500 500"><defs><style>.cls-1,.cls-2{fill:#fff;}.cls-2{stroke:#000;stroke-miterlimit:10;stroke-width:8.76px;}</style></defs><title>Certbot-Icons</title><path d="M483.89,249.24V237.65h0v-.17a36.71,36.71,0,1,0-73.42,0v.17h0v11.59h-6.1v68.08H490V249.24Zm-58.88,0L425,237.59v-.27a22.22,22.22,0,0,1,44.44,0v.27l0,11.65Z"/><polygon class="cls-1" points="472.26 269.35 464.55 261.63 436.69 289.49 429.81 282.62 422.1 290.33 436.7 304.94 444.42 297.22 444.4 297.21 472.26 269.35"/><path d="M32.41,251.5l.17-8.22h0l.27-14.44v-.31a22,22,0,0,1,44,.95,2.71,2.71,0,0,0,0,.29l-.13,5.57H91.06l.11-5.24h0v-.17a36.31,36.31,0,1,0-72.61-1.53v.17h0l-.48,22.93H11.81v67.35h84.7V251.5Z"/><polygon class="cls-1" points="75.73 273.9 68.01 266.18 54.16 280.04 40.31 266.18 32.59 273.9 46.44 287.75 32.59 301.61 40.31 309.32 54.16 295.47 68.01 309.32 75.73 301.61 61.88 287.75 75.73 273.9"/><rect class="cls-2" x="153.96" y="244.57" width="193" height="73.4" rx="36.7"/><rect x="258.38" y="244.94" width="88.99" height="73.4" rx="36.7"/></svg>