<?xml version="1.0" encoding="utf-8"?>
<!-- Generator: Adobe Illustrator 16.0.0, SVG Export Plug-In . SVG Version: 6.00 Build 0)  -->
<!DOCTYPE svg PUBLIC "-//W3C//DTD SVG 1.1//EN" "http://www.w3.org/Graphics/SVG/1.1/DTD/svg11.dtd">
<svg version="1.1" id="Layer_1" xmlns="http://www.w3.org/2000/svg" xmlns:xlink="http://www.w3.org/1999/xlink" x="0px" y="0px"
	 width="612px" height="612px" viewBox="0 90 612 612" enable-background="new 0 90 612 612" xml:space="preserve">
<g id="XMLID_20_">
	<circle id="XMLID_17_" cx="306" cy="396" r="306"/>
	<g id="XMLID_109_">
		<path id="XMLID_125_" fill="#FFFFFF" d="M510.85,362l-37.399-3.825c-4.25-19.55-11.9-37.825-22.525-53.975l23.8-28.9
			c3.4-3.4,3.4-9.35,0-12.75l-35.274-35.275c-3.4-3.4-9.351-3.4-12.75,0l-28.9,23.8c-16.149-10.2-34.425-17.85-53.975-22.525
			L340,191.15c0-5.1-4.25-9.35-9.35-9.35h-49.726c-5.1,0-9.35,4.25-9.35,9.35l-3.825,37.4c-19.55,4.25-37.825,11.9-53.975,22.525
			l-28.9-23.8c-3.4-3.4-9.35-3.4-12.75,0L136.85,262.55c-3.4,3.4-3.4,9.35,0,12.75l23.8,28.9
			c-10.2,16.15-17.85,34.425-22.525,53.975L101.15,362c-5.1,0-9.35,4.25-9.35,9.35v49.725c0,5.1,4.25,9.35,9.35,9.35l37.4,3.825
			c4.25,19.55,11.9,37.825,22.525,53.975l-23.8,28.9c-3.4,3.4-3.4,9.35,0,12.75l35.275,35.275c3.4,3.399,9.35,3.399,12.75,0
			l28.9-23.801c16.15,10.2,34.425,17.851,53.975,22.525l3.825,37.4c0,5.1,4.25,9.35,9.35,9.35h49.725c5.1,0,9.35-4.25,9.35-9.35
			l3.825-37.4c19.55-4.25,37.825-11.9,53.975-22.525l28.9,23.801c3.4,3.399,9.35,3.399,12.75,0l35.275-35.275
			c3.399-3.4,3.399-9.35,0-12.75l-23.801-28.9c10.2-16.149,17.851-34.425,22.525-53.975l37.4-3.825c5.1,0,9.35-4.25,9.35-9.35
			v-50.15C520.2,365.825,515.95,362,510.85,362z M310.675,531.575c-78.2,2.55-142.8-61.625-140.25-140.25
			C172.55,322.05,232.475,262.55,301.75,260c78.2-2.55,142.8,61.625,140.25,140.25C439.45,469.525,379.525,529.45,310.675,531.575z"
			/>
	</g>
	<path id="XMLID_112_" fill="#FFFFFF" d="M306,469.95c-40.8,0-73.95-33.15-73.95-73.95s33.15-73.95,73.95-73.95
		s73.95,33.15,73.95,73.95S346.8,469.95,306,469.95z M306,358.175c-20.825,0-37.825,17-37.825,37.825s17,37.825,37.825,37.825
		s37.825-17,37.825-37.825S326.825,358.175,306,358.175z"/>
</g>
</svg>
