<svg xmlns="http://www.w3.org/2000/svg" width="22.713" height="18.459" viewBox="0 0 22.713 18.459">
  <path id="path3611" d="M547.322,588.317a13.168,13.168,0,0,0,13.259-13.259q0-.3-.013-.6a9.475,9.475,0,0,0,2.324-2.413,9.289,9.289,0,0,1-2.676.734,4.677,4.677,0,0,0,2.049-2.577,9.345,9.345,0,0,1-2.959,1.131,4.664,4.664,0,0,0-7.941,4.25,13.23,13.23,0,0,1-9.605-4.869,4.664,4.664,0,0,0,1.443,6.221,4.626,4.626,0,0,1-2.111-.583c0,.02,0,.039,0,.06a4.661,4.661,0,0,0,3.739,4.568,4.652,4.652,0,0,1-2.1.08,4.665,4.665,0,0,0,4.353,3.237,9.349,9.349,0,0,1-5.788,1.995,9.45,9.45,0,0,1-1.112-.065,13.191,13.191,0,0,0,7.143,2.093" transform="translate(-540.179 -569.858)" fill="#ed1c24"/>
</svg>
