<svg id="Twitter_Bird" xmlns="http://www.w3.org/2000/svg" width="63.422" height="51.543" viewBox="0 0 63.422 51.543">
  <path id="path3611" d="M560.125,621.4c23.934,0,37.022-19.829,37.022-37.023q0-.845-.037-1.682a26.457,26.457,0,0,0,6.491-6.738,25.941,25.941,0,0,1-7.472,2.049,13.058,13.058,0,0,0,5.722-7.2,26.094,26.094,0,0,1-8.263,3.158,13.023,13.023,0,0,0-22.174,11.866,36.944,36.944,0,0,1-26.821-13.6,13.024,13.024,0,0,0,4.029,17.371,12.917,12.917,0,0,1-5.893-1.627c0,.055,0,.108,0,.166a13.016,13.016,0,0,0,10.439,12.756,12.992,12.992,0,0,1-5.877.223,13.026,13.026,0,0,0,12.156,9.038,26.1,26.1,0,0,1-16.161,5.57,26.425,26.425,0,0,1-3.1-.18,36.833,36.833,0,0,0,19.946,5.845" transform="translate(-540.179 -569.858)"/>
</svg>
