<?xml version="1.0" encoding="utf-8"?>
<!-- Generator: Adobe Illustrator 16.0.0, SVG Export Plug-In . SVG Version: 6.00 Build 0)  -->
<!DOCTYPE svg PUBLIC "-//W3C//DTD SVG 1.1//EN" "http://www.w3.org/Graphics/SVG/1.1/DTD/svg11.dtd">
<svg version="1.1" id="Layer_1" xmlns="http://www.w3.org/2000/svg" xmlns:xlink="http://www.w3.org/1999/xlink" x="0px" y="0px"
	 width="612px" height="792px" viewBox="0 0 612 792" enable-background="new 0 0 612 792" xml:space="preserve">
<g>
	<path display="none" fill="none" stroke="#FFFFFF" stroke-width="24.6944" d="M373.841,100.106
		c-40.948,0-77.713,17.79-103.027,46.093h-168.38V330.52h168.38c25.314,28.288,62.079,46.081,103.027,46.081
		c76.364,0,138.261-61.876,138.261-138.246S450.205,100.106,373.841,100.106z M184.36,176.903h65.605
		c-6.291,12.648-10.716,26.439-12.878,40.978H184.36V176.903z M184.36,299.801v-51.199h51.632
		c1.331,18.289,6.22,35.56,13.974,51.199H184.36z"/>
	<g>
		<path fill="#ED1C24" d="M235.574,238.355c0-76.37,61.909-138.249,138.267-138.249c76.364,0,138.261,61.879,138.261,138.249
			s-61.896,138.246-138.261,138.246C297.483,376.601,235.574,314.725,235.574,238.355z"/>
		<g>
			<polygon points="102.434,146.199 332.875,146.199 332.875,176.903 184.36,176.903 184.36,217.88 327.736,217.88 327.736,248.602 
				184.36,248.602 184.36,299.801 332.875,299.801 332.875,330.52 102.434,330.52 			"/>
		</g>
	</g>
	<g>
		<polygon fill="#FFFFFF" points="363.597,146.199 363.597,228.111 378.949,228.111 378.949,197.374 389.209,197.374 
			389.209,182.027 378.949,182.027 378.949,161.529 394.306,161.529 394.306,146.199 		"/>
		<polygon fill="#FFFFFF" points="363.597,248.602 363.597,330.52 378.949,330.52 378.949,299.801 389.209,299.801 389.209,284.433 
			378.949,284.433 378.949,263.947 394.306,263.947 394.306,248.602 		"/>
	</g>
</g>
</svg>
